<svg height="512" viewBox="0 0 64 64" width="512" xmlns="http://www.w3.org/2000/svg"><g id="Twotone"><g id="Color_copy" data-name="Color copy"><g><g fill="#79bd9a"><path d="m3 3h42v4h-42z"/><path d="m3 55h42v4h-42z"/><g><path d="m7 47h34v8h-34z"/><path d="m7 39h34v8h-34z"/><path d="m7 31h34v8h-34z"/></g><path d="m7 7h34v8h-34z"/><path d="m41 21v-6h-34v8h25.326a19.892 19.892 0 0 1 8.674-2z"/><path d="m32.326 23h-25.326v8h16.7a20.063 20.063 0 0 1 8.626-8z"/></g><g><path d="m48 55a19.974 19.974 0 0 1 -16.141-31.775 19.989 19.989 0 1 0 25.282 29.55 19.891 19.891 0 0 1 -9.141 2.225z" fill="#cff09e"/><circle cx="41" cy="41" fill="#a8dba8" r="16"/></g></g></g><g id="Stroke_Close_copy" data-name="Stroke Close copy"><g fill="#3b8686"><path d="m33 44a4 4 0 0 0 -4-4 2 2 0 1 1 2-2 1 1 0 0 0 2 0 4 4 0 1 0 -4 4 2 2 0 1 1 -2 2 1 1 0 0 0 -2 0 4 4 0 0 0 8 0z"/><path d="m56 46h-5v-11a1 1 0 0 0 -2 0v12a1 1 0 0 0 1 1h6a1 1 0 0 0 0-2z"/><path d="m47 40a6 6 0 0 0 -12 0v2a5.99 5.99 0 0 0 9.471 4.885l.822.822a1 1 0 0 0 1.414-1.414l-.822-.822a5.961 5.961 0 0 0 1.115-3.471zm-4.293 2.293a1 1 0 0 0 -1.414 1.414l1.726 1.726a3.947 3.947 0 0 1 -2.019.567 4 4 0 0 1 -4-4v-2a4 4 0 0 1 8 0v2a3.947 3.947 0 0 1 -.567 2.019z"/><path d="m42 20.051v-12.051h3a1 1 0 0 0 1-1v-4a1 1 0 0 0 -1-1h-42a1 1 0 0 0 -1 1v4a1 1 0 0 0 1 1h3v46h-3a1 1 0 0 0 -1 1v4a1 1 0 0 0 1 1h29.114a20.978 20.978 0 1 0 9.886-39.949zm-34 19.949h12.051c-.016.334-.051.662-.051 1a20.878 20.878 0 0 0 .627 5h-12.627zm12.24-2h-12.24v-6h14.055a20.781 20.781 0 0 0 -1.815 6zm2.906-8h-15.146v-6h20.721a21.133 21.133 0 0 0 -5.575 6zm8.968-8h-24.114v-6h32v4.051a20.811 20.811 0 0 0 -7.886 1.949zm-28.114-18h40v2h-40zm36 4v6h-32v-6zm-32 40h13.225a20.981 20.981 0 0 0 3.314 6h-16.539zm-4 10v-2h22.331a21.081 21.081 0 0 0 2.39 2zm37 2a19 19 0 1 1 19-19 19.021 19.021 0 0 1 -19 19z"/><path d="m29.3 31.626a14.977 14.977 0 0 1 23.4 0 1 1 0 0 0 1.561-1.252 16.98 16.98 0 0 0 -26.52 0 1 1 0 0 0 1.559 1.252z"/><path d="m52.7 50.374a14.977 14.977 0 0 1 -23.4 0 1 1 0 0 0 -1.561 1.252 16.98 16.98 0 0 0 26.52 0 1 1 0 0 0 -1.559-1.252z"/><circle cx="28" cy="19" r="1"/><circle cx="32" cy="19" r="1"/><path d="m23 18h-12a1 1 0 0 0 0 2h12a1 1 0 0 0 0-2z"/><circle cx="28" cy="11" r="1"/><circle cx="32" cy="11" r="1"/><circle cx="36" cy="11" r="1"/><path d="m11 12h12a1 1 0 0 0 0-2h-12a1 1 0 0 0 0 2z"/><path d="m22 26h-7a1 1 0 0 0 0 2h7a1 1 0 0 0 0-2z"/><path d="m15 50h-3a1 1 0 0 0 0 2h3a1 1 0 0 0 0-2z"/><path d="m14 34h-2a1 1 0 0 0 0 2h2a1 1 0 0 0 0-2z"/><circle cx="18" cy="35" r="1"/><circle cx="12" cy="43" r="1"/><circle cx="16" cy="43" r="1"/><circle cx="19" cy="51" r="1"/><circle cx="12" cy="27" r="1"/></g></g></g></svg>