<svg id="Capa_1" enable-background="new 0 0 512 512" height="512" viewBox="0 0 512 512" width="512" xmlns="http://www.w3.org/2000/svg"><g><path d="m488.5 49.139h-32.11v-25.54c0-10.752-8.748-19.5-19.5-19.5h-361.78c-10.752 0-19.5 8.748-19.5 19.5v25.54h-32.11c-12.958 0-23.5 10.542-23.5 23.5v7.57c0 4.143 3.357 7.5 7.5 7.5s7.5-3.357 7.5-7.5v-7.57c0-4.687 3.813-8.5 8.5-8.5h32.11v270.916h-40.61v-219.846c0-4.143-3.357-7.5-7.5-7.5s-7.5 3.357-7.5 7.5v274.47c0 12.958 10.542 23.5 23.5 23.5h174.34v33.918h-29.577c-9.649 0-17.5 7.851-17.5 17.5v25.805c0 9.649 7.851 17.5 17.5 17.5h175.475c9.649 0 17.5-7.851 17.5-17.5v-25.805c0-9.649-7.851-17.5-17.5-17.5h-29.578v-33.918h119.02c4.143 0 7.5-3.357 7.5-7.5s-3.357-7.5-7.5-7.5h-409.68c-4.687 0-8.5-3.813-8.5-8.5v-39.624h191.83v17.91c0 6.341 5.159 11.5 11.5 11.5h75.34c6.341 0 11.5-5.159 11.5-11.5v-17.91h191.83v39.624c0 4.687-3.813 8.5-8.5 8.5h-20.32c-4.143 0-7.5 3.357-7.5 7.5s3.357 7.5 7.5 7.5h20.32c12.958 0 23.5-10.542 23.5-23.5v-317.04c0-12.958-10.542-23.5-23.5-23.5zm-142.263 415.458v25.805c0 1.379-1.121 2.5-2.5 2.5h-175.474c-1.379 0-2.5-1.121-2.5-2.5v-25.805c0-1.379 1.121-2.5 2.5-2.5h175.475c1.378 0 2.499 1.121 2.499 2.5zm-47.077-17.5h-86.32v-33.918h86.32zm-224.05-427.998h361.78c2.481 0 4.5 2.019 4.5 4.5v13.763h-370.78v-13.763c0-2.482 2.019-4.5 4.5-4.5zm-4.5 33.262h370.78v282.693h-370.78zm219.56 312.104h-68.34v-14.41h68.34zm166.22-29.41v-270.916h32.11c4.687 0 8.5 3.813 8.5 8.5v262.416z"/><path d="m410.897 117.781c-4.143 0-7.5 3.357-7.5 7.5v5h-5c-4.143 0-7.5 3.357-7.5 7.5s3.357 7.5 7.5 7.5h10.5c5.238 0 9.5-4.262 9.5-9.5v-10.5c0-4.142-3.357-7.5-7.5-7.5z"/><path d="m294.84 145.281h25.89c4.143 0 7.5-3.357 7.5-7.5s-3.357-7.5-7.5-7.5h-25.89c-4.143 0-7.5 3.357-7.5 7.5s3.357 7.5 7.5 7.5z"/><path d="m346.618 145.281h25.89c4.143 0 7.5-3.357 7.5-7.5s-3.357-7.5-7.5-7.5h-25.89c-4.143 0-7.5 3.357-7.5 7.5s3.358 7.5 7.5 7.5z"/><path d="m243.062 145.281h25.89c4.143 0 7.5-3.357 7.5-7.5s-3.357-7.5-7.5-7.5h-25.89c-4.143 0-7.5 3.357-7.5 7.5s3.357 7.5 7.5 7.5z"/><path d="m139.505 145.281h25.89c4.143 0 7.5-3.357 7.5-7.5s-3.357-7.5-7.5-7.5h-25.89c-4.143 0-7.5 3.357-7.5 7.5s3.357 7.5 7.5 7.5z"/><path d="m191.283 145.281h25.89c4.143 0 7.5-3.357 7.5-7.5s-3.357-7.5-7.5-7.5h-25.89c-4.143 0-7.5 3.357-7.5 7.5s3.358 7.5 7.5 7.5z"/><path d="m103.116 145.281h10.5c4.143 0 7.5-3.357 7.5-7.5s-3.357-7.5-7.5-7.5h-5v-5c0-4.143-3.357-7.5-7.5-7.5s-7.5 3.357-7.5 7.5v10.5c0 5.239 4.262 9.5 9.5 9.5z"/><path d="m101.116 102.861c4.143 0 7.5-3.357 7.5-7.5v-5h5c4.143 0 7.5-3.357 7.5-7.5s-3.357-7.5-7.5-7.5h-10.5c-5.238 0-9.5 4.262-9.5 9.5v10.5c0 4.143 3.358 7.5 7.5 7.5z"/><path d="m346.619 90.361h25.89c4.143 0 7.5-3.357 7.5-7.5s-3.357-7.5-7.5-7.5h-25.89c-4.143 0-7.5 3.357-7.5 7.5s3.358 7.5 7.5 7.5z"/><path d="m139.506 90.361h25.89c4.143 0 7.5-3.357 7.5-7.5s-3.357-7.5-7.5-7.5h-25.89c-4.143 0-7.5 3.357-7.5 7.5s3.357 7.5 7.5 7.5z"/><path d="m191.284 90.361h25.89c4.143 0 7.5-3.357 7.5-7.5s-3.357-7.5-7.5-7.5h-25.89c-4.143 0-7.5 3.357-7.5 7.5s3.358 7.5 7.5 7.5z"/><path d="m243.062 90.361h25.89c4.143 0 7.5-3.357 7.5-7.5s-3.357-7.5-7.5-7.5h-25.89c-4.143 0-7.5 3.357-7.5 7.5s3.358 7.5 7.5 7.5z"/><path d="m294.841 90.361h25.89c4.143 0 7.5-3.357 7.5-7.5s-3.357-7.5-7.5-7.5h-25.89c-4.143 0-7.5 3.357-7.5 7.5s3.357 7.5 7.5 7.5z"/><path d="m408.897 75.361h-10.5c-4.143 0-7.5 3.357-7.5 7.5s3.357 7.5 7.5 7.5h5v5c0 4.143 3.357 7.5 7.5 7.5s7.5-3.357 7.5-7.5v-10.5c0-5.238-4.261-9.5-9.5-9.5z"/><path d="m406.897 159.965h-76.071c-6.341 0-11.5 5.159-11.5 11.5v129.09c0 6.341 5.159 11.5 11.5 11.5h76.071c6.341 0 11.5-5.159 11.5-11.5v-129.09c0-6.341-5.159-11.5-11.5-11.5zm-3.5 137.09h-69.071v-122.09h69.071z"/><path d="m166.473 162.328c-3.845-1.533-8.21.348-9.74 4.197l-21.289 53.525c-1.531 3.849.348 8.21 4.197 9.74.909.362 1.847.533 2.77.533 2.981 0 5.802-1.791 6.971-4.73l21.289-53.525c1.53-3.848-.349-8.21-4.198-9.74z"/><path d="m186.942 226.746c1.184.686 2.476 1.011 3.752 1.011 2.588 0 5.106-1.341 6.497-3.742l14.296-24.681c1.37-2.365 1.345-5.29-.067-7.631l-14.296-23.712c-2.138-3.547-6.749-4.688-10.295-2.551-3.548 2.139-4.689 6.748-2.551 10.295l12.007 19.916-12.074 20.846c-2.076 3.584-.854 8.173 2.731 10.249z"/><path d="m119.284 165.44c-3.544-2.138-8.156-.997-10.295 2.551l-14.296 23.712c-1.412 2.341-1.438 5.266-.067 7.631l14.296 24.681c1.391 2.401 3.909 3.742 6.497 3.742 1.276 0 2.569-.325 3.752-1.011 3.585-2.076 4.808-6.665 2.731-10.249l-12.074-20.846 12.007-19.916c2.139-3.547.997-8.156-2.551-10.295z"/><path d="m296.695 161.797h-64.174c-4.143 0-7.5 3.357-7.5 7.5s3.357 7.5 7.5 7.5h64.174c4.143 0 7.5-3.357 7.5-7.5s-3.357-7.5-7.5-7.5z"/><path d="m296.695 188.56h-64.174c-4.143 0-7.5 3.357-7.5 7.5s3.357 7.5 7.5 7.5h64.174c4.143 0 7.5-3.357 7.5-7.5s-3.357-7.5-7.5-7.5z"/><path d="m296.695 215.322h-64.174c-4.143 0-7.5 3.357-7.5 7.5s3.357 7.5 7.5 7.5h64.174c4.143 0 7.5-3.357 7.5-7.5s-3.357-7.5-7.5-7.5z"/><path d="m296.695 243.499h-195.579c-4.143 0-7.5 3.357-7.5 7.5s3.357 7.5 7.5 7.5h195.579c4.143 0 7.5-3.357 7.5-7.5s-3.357-7.5-7.5-7.5z"/><path d="m296.695 269.838h-195.579c-4.143 0-7.5 3.357-7.5 7.5s3.357 7.5 7.5 7.5h195.579c4.143 0 7.5-3.357 7.5-7.5s-3.357-7.5-7.5-7.5z"/><path d="m296.695 296.601h-195.579c-4.143 0-7.5 3.357-7.5 7.5s3.357 7.5 7.5 7.5h195.579c4.143 0 7.5-3.357 7.5-7.5s-3.357-7.5-7.5-7.5z"/><path d="m356.731 243.51h4.63v4.631c0 4.143 3.357 7.5 7.5 7.5s7.5-3.357 7.5-7.5v-4.631h4.631c4.143 0 7.5-3.357 7.5-7.5s-3.357-7.5-7.5-7.5h-4.631v-4.63c0-4.143-3.357-7.5-7.5-7.5s-7.5 3.357-7.5 7.5v4.63h-4.63c-4.143 0-7.5 3.357-7.5 7.5s3.358 7.5 7.5 7.5z"/></g></svg>